<mxfile host="Electron" modified="2024-04-04T20:24:54.287Z" agent="Mozilla/5.0 (Windows NT 10.0; Win64; x64) AppleWebKit/537.36 (KHTML, like Gecko) draw.io/24.1.0 Chrome/120.0.6099.109 Electron/28.1.0 Safari/537.36" etag="KS3ZLFqdThoJ989CUa38" version="24.1.0" type="device">
  <diagram name="Page-1" id="M8GImtX7W732KPLTwruv">
    <mxGraphModel dx="2247" dy="1077" grid="1" gridSize="10" guides="1" tooltips="1" connect="1" arrows="1" fold="1" page="1" pageScale="1" pageWidth="850" pageHeight="1100" math="0" shadow="0">
      <root>
        <mxCell id="0" />
        <mxCell id="1" parent="0" />
        <mxCell id="VCWsMaXhS-fxeMUfbvEo-6" value="&amp;nbsp;Response&amp;nbsp;" style="edgeStyle=orthogonalEdgeStyle;rounded=0;orthogonalLoop=1;jettySize=auto;html=1;entryX=0;entryY=0.25;entryDx=0;entryDy=0;strokeWidth=2;strokeColor=#009900;" parent="1" source="VCWsMaXhS-fxeMUfbvEo-2" target="VCWsMaXhS-fxeMUfbvEo-3" edge="1">
          <mxGeometry relative="1" as="geometry">
            <Array as="points">
              <mxPoint x="260" y="415" />
              <mxPoint x="260" y="415" />
            </Array>
          </mxGeometry>
        </mxCell>
        <mxCell id="VCWsMaXhS-fxeMUfbvEo-2" value="API / DB&lt;div&gt;(optional)&lt;/div&gt;" style="rounded=0;whiteSpace=wrap;html=1;fillColor=#d5e8d4;strokeColor=#82b366;" parent="1" vertex="1">
          <mxGeometry x="70" y="400" width="120" height="60" as="geometry" />
        </mxCell>
        <mxCell id="VCWsMaXhS-fxeMUfbvEo-7" value="&amp;nbsp;Request&amp;nbsp;" style="edgeStyle=orthogonalEdgeStyle;rounded=0;orthogonalLoop=1;jettySize=auto;html=1;exitX=0;exitY=0.75;exitDx=0;exitDy=0;entryX=1;entryY=0.75;entryDx=0;entryDy=0;strokeWidth=2;strokeColor=#0066CC;" parent="1" source="VCWsMaXhS-fxeMUfbvEo-3" target="VCWsMaXhS-fxeMUfbvEo-2" edge="1">
          <mxGeometry relative="1" as="geometry" />
        </mxCell>
        <mxCell id="VCWsMaXhS-fxeMUfbvEo-8" value="Model changed" style="edgeStyle=orthogonalEdgeStyle;rounded=0;orthogonalLoop=1;jettySize=auto;html=1;exitX=0.25;exitY=0;exitDx=0;exitDy=0;entryX=0.25;entryY=1;entryDx=0;entryDy=0;strokeWidth=2;strokeColor=#009900;" parent="1" source="VCWsMaXhS-fxeMUfbvEo-3" target="VCWsMaXhS-fxeMUfbvEo-4" edge="1">
          <mxGeometry relative="1" as="geometry" />
        </mxCell>
        <mxCell id="DY91qb3Q7qSBq6ZbtoEW-1" style="edgeStyle=orthogonalEdgeStyle;rounded=0;orthogonalLoop=1;jettySize=auto;html=1;dashed=1;" edge="1" parent="1" source="VCWsMaXhS-fxeMUfbvEo-3" target="VCWsMaXhS-fxeMUfbvEo-5">
          <mxGeometry relative="1" as="geometry">
            <Array as="points">
              <mxPoint x="380" y="360" />
              <mxPoint x="130" y="360" />
            </Array>
          </mxGeometry>
        </mxCell>
        <mxCell id="VCWsMaXhS-fxeMUfbvEo-3" value="Model" style="rounded=0;whiteSpace=wrap;html=1;fillColor=#dae8fc;strokeColor=#6c8ebf;" parent="1" vertex="1">
          <mxGeometry x="365" y="400" width="195" height="60" as="geometry" />
        </mxCell>
        <mxCell id="VCWsMaXhS-fxeMUfbvEo-10" value="Update model" style="edgeStyle=orthogonalEdgeStyle;rounded=0;orthogonalLoop=1;jettySize=auto;html=1;exitX=0.75;exitY=1;exitDx=0;exitDy=0;entryX=0.75;entryY=0;entryDx=0;entryDy=0;strokeWidth=2;strokeColor=#0066CC;" parent="1" source="VCWsMaXhS-fxeMUfbvEo-4" target="VCWsMaXhS-fxeMUfbvEo-3" edge="1">
          <mxGeometry relative="1" as="geometry" />
        </mxCell>
        <mxCell id="VCWsMaXhS-fxeMUfbvEo-12" value="&amp;nbsp;Update UI&amp;nbsp;" style="edgeStyle=orthogonalEdgeStyle;rounded=0;orthogonalLoop=1;jettySize=auto;html=1;exitX=0;exitY=0.75;exitDx=0;exitDy=0;entryX=1;entryY=0.75;entryDx=0;entryDy=0;strokeWidth=2;strokeColor=#009900;" parent="1" source="VCWsMaXhS-fxeMUfbvEo-4" target="VCWsMaXhS-fxeMUfbvEo-5" edge="1">
          <mxGeometry relative="1" as="geometry" />
        </mxCell>
        <mxCell id="VCWsMaXhS-fxeMUfbvEo-4" value="Controller" style="rounded=0;whiteSpace=wrap;html=1;fillColor=#e1d5e7;strokeColor=#9673a6;" parent="1" vertex="1">
          <mxGeometry x="365" y="230" width="195" height="60" as="geometry" />
        </mxCell>
        <mxCell id="VCWsMaXhS-fxeMUfbvEo-11" value="&amp;nbsp;User actions&amp;nbsp;" style="edgeStyle=orthogonalEdgeStyle;rounded=0;orthogonalLoop=1;jettySize=auto;html=1;exitX=1;exitY=0.25;exitDx=0;exitDy=0;entryX=0;entryY=0.25;entryDx=0;entryDy=0;strokeWidth=2;strokeColor=#0066CC;" parent="1" source="VCWsMaXhS-fxeMUfbvEo-5" target="VCWsMaXhS-fxeMUfbvEo-4" edge="1">
          <mxGeometry relative="1" as="geometry" />
        </mxCell>
        <mxCell id="VCWsMaXhS-fxeMUfbvEo-5" value="View" style="rounded=0;whiteSpace=wrap;html=1;fillColor=#ffe6cc;strokeColor=#d79b00;" parent="1" vertex="1">
          <mxGeometry x="70" y="230" width="120" height="60" as="geometry" />
        </mxCell>
        <mxCell id="VCWsMaXhS-fxeMUfbvEo-13" value="*" style="text;html=1;align=center;verticalAlign=middle;resizable=0;points=[];autosize=1;strokeColor=none;fillColor=none;" parent="1" vertex="1">
          <mxGeometry x="200" y="270" width="30" height="30" as="geometry" />
        </mxCell>
        <mxCell id="VCWsMaXhS-fxeMUfbvEo-14" value="1" style="text;html=1;align=center;verticalAlign=middle;resizable=0;points=[];autosize=1;strokeColor=none;fillColor=none;" parent="1" vertex="1">
          <mxGeometry x="330" y="270" width="30" height="30" as="geometry" />
        </mxCell>
        <mxCell id="KIR0GWbb3z0q6OJyUovL-4" value="&amp;nbsp;User interaction&amp;nbsp;" style="edgeStyle=orthogonalEdgeStyle;rounded=0;orthogonalLoop=1;jettySize=auto;html=1;entryX=0;entryY=0.25;entryDx=0;entryDy=0;strokeColor=#0066CC;strokeWidth=2;" parent="1" source="VCWsMaXhS-fxeMUfbvEo-15" target="VCWsMaXhS-fxeMUfbvEo-5" edge="1">
          <mxGeometry relative="1" as="geometry">
            <Array as="points">
              <mxPoint x="20" y="245" />
              <mxPoint x="20" y="245" />
            </Array>
          </mxGeometry>
        </mxCell>
        <mxCell id="KIR0GWbb3z0q6OJyUovL-6" value="&amp;nbsp;IU updated&amp;nbsp;" style="edgeStyle=orthogonalEdgeStyle;rounded=0;orthogonalLoop=1;jettySize=auto;html=1;exitX=0;exitY=0.75;exitDx=0;exitDy=0;strokeWidth=2;strokeColor=#009900;" parent="1" source="VCWsMaXhS-fxeMUfbvEo-5" target="VCWsMaXhS-fxeMUfbvEo-15" edge="1">
          <mxGeometry relative="1" as="geometry">
            <Array as="points">
              <mxPoint x="20" y="275" />
              <mxPoint x="20" y="275" />
            </Array>
          </mxGeometry>
        </mxCell>
        <mxCell id="VCWsMaXhS-fxeMUfbvEo-15" value="User" style="sketch=0;outlineConnect=0;fontColor=#232F3E;gradientColor=none;fillColor=#232F3D;strokeColor=none;dashed=0;verticalLabelPosition=bottom;verticalAlign=top;align=center;html=1;fontSize=12;fontStyle=0;aspect=fixed;pointerEvents=1;shape=mxgraph.aws4.user;" parent="1" vertex="1">
          <mxGeometry x="-180" y="221" width="78" height="78" as="geometry" />
        </mxCell>
      </root>
    </mxGraphModel>
  </diagram>
</mxfile>
